<mxfile host="app.diagrams.net" modified="2020-12-09T23:14:18.596Z" agent="5.0 (Windows)" etag="Yc2fOBQ82C3Pqvee9yr-" version="13.10.9" type="github">
  <diagram name="Page-1" id="58cdce13-f638-feb5-8d6f-7d28b1aa9fa0">
    <mxGraphModel dx="1884" dy="1054" grid="1" gridSize="10" guides="1" tooltips="1" connect="1" arrows="1" fold="1" page="1" pageScale="1" pageWidth="1100" pageHeight="850" background="#ffffff" math="0" shadow="0">
      <root>
        <mxCell id="0" />
        <mxCell id="1" parent="0" />
        <mxCell id="382b91b5511bd0f7-1" value="" style="ellipse;html=1;shape=startState;fillColor=#000000;strokeColor=#ff0000;rounded=1;shadow=0;comic=0;labelBackgroundColor=none;fontFamily=Verdana;fontSize=12;fontColor=#000000;align=center;direction=south;" parent="1" vertex="1">
          <mxGeometry x="20" y="122.5" width="30" height="30" as="geometry" />
        </mxCell>
        <mxCell id="2a3bc250acf0617d-8" value="Gun Activation" style="shape=umlFrame;whiteSpace=wrap;html=1;rounded=1;shadow=0;comic=0;labelBackgroundColor=none;strokeWidth=1;fontFamily=Verdana;fontSize=12;align=center;width=120;height=45;" parent="1" vertex="1">
          <mxGeometry x="5" y="30" width="1050" height="745" as="geometry" />
        </mxCell>
        <mxCell id="2a3bc250acf0617d-9" style="edgeStyle=orthogonalEdgeStyle;html=1;labelBackgroundColor=none;endArrow=open;endSize=8;strokeColor=#ff0000;fontFamily=Verdana;fontSize=12;align=left;entryX=0;entryY=0.5;entryDx=0;entryDy=0;" parent="1" source="382b91b5511bd0f7-1" target="UG29eynXlcT5mDYyNSbf-15" edge="1">
          <mxGeometry relative="1" as="geometry">
            <mxPoint x="210" y="230" as="targetPoint" />
          </mxGeometry>
        </mxCell>
        <mxCell id="UG29eynXlcT5mDYyNSbf-2" value="Gun turned on" style="text;html=1;strokeColor=none;fillColor=none;align=center;verticalAlign=middle;whiteSpace=wrap;rounded=0;" vertex="1" parent="1">
          <mxGeometry x="5" y="152.5" width="80" height="30" as="geometry" />
        </mxCell>
        <mxCell id="UG29eynXlcT5mDYyNSbf-3" value="" style="rhombus;whiteSpace=wrap;html=1;" vertex="1" parent="1">
          <mxGeometry x="360" y="202.5" width="65" height="65" as="geometry" />
        </mxCell>
        <mxCell id="UG29eynXlcT5mDYyNSbf-4" value="" style="endArrow=classic;html=1;exitX=0.5;exitY=0;exitDx=0;exitDy=0;entryX=0;entryY=0.5;entryDx=0;entryDy=0;strokeColor=#FF0000;" edge="1" parent="1" source="UG29eynXlcT5mDYyNSbf-3" target="UG29eynXlcT5mDYyNSbf-7">
          <mxGeometry width="50" height="50" relative="1" as="geometry">
            <mxPoint x="410" y="200" as="sourcePoint" />
            <mxPoint x="485" y="160" as="targetPoint" />
          </mxGeometry>
        </mxCell>
        <mxCell id="UG29eynXlcT5mDYyNSbf-10" value="incorrectDataCounter == 0" style="edgeLabel;html=1;align=center;verticalAlign=middle;resizable=0;points=[];rotation=-30;" vertex="1" connectable="0" parent="UG29eynXlcT5mDYyNSbf-4">
          <mxGeometry x="-0.3842" y="-1" relative="1" as="geometry">
            <mxPoint x="30.30000000000001" y="-32.989999999999995" as="offset" />
          </mxGeometry>
        </mxCell>
        <mxCell id="UG29eynXlcT5mDYyNSbf-23" style="edgeStyle=orthogonalEdgeStyle;rounded=0;orthogonalLoop=1;jettySize=auto;html=1;endArrow=classicThin;endFill=1;strokeColor=#FF0000;entryX=0;entryY=0.5;entryDx=0;entryDy=0;" edge="1" parent="1" source="UG29eynXlcT5mDYyNSbf-7" target="UG29eynXlcT5mDYyNSbf-24">
          <mxGeometry relative="1" as="geometry">
            <mxPoint x="770" y="110" as="targetPoint" />
          </mxGeometry>
        </mxCell>
        <mxCell id="UG29eynXlcT5mDYyNSbf-7" value="Authorize" style="rounded=1;whiteSpace=wrap;html=1;strokeColor=#FF0000;fillColor=#FFD966;" vertex="1" parent="1">
          <mxGeometry x="585" y="80" width="120" height="60" as="geometry" />
        </mxCell>
        <mxCell id="UG29eynXlcT5mDYyNSbf-8" value="" style="endArrow=classic;html=1;strokeColor=#FF0000;exitX=1;exitY=0.5;exitDx=0;exitDy=0;entryX=0;entryY=0.5;entryDx=0;entryDy=0;" edge="1" parent="1" source="UG29eynXlcT5mDYyNSbf-3" target="UG29eynXlcT5mDYyNSbf-9">
          <mxGeometry width="50" height="50" relative="1" as="geometry">
            <mxPoint x="435" y="225" as="sourcePoint" />
            <mxPoint x="525" y="225" as="targetPoint" />
          </mxGeometry>
        </mxCell>
        <mxCell id="UG29eynXlcT5mDYyNSbf-30" style="edgeStyle=orthogonalEdgeStyle;rounded=0;orthogonalLoop=1;jettySize=auto;html=1;entryX=0;entryY=0.5;entryDx=0;entryDy=0;endArrow=classicThin;endFill=1;strokeColor=#FF0000;" edge="1" parent="1" source="UG29eynXlcT5mDYyNSbf-9" target="UG29eynXlcT5mDYyNSbf-27">
          <mxGeometry relative="1" as="geometry" />
        </mxCell>
        <mxCell id="UG29eynXlcT5mDYyNSbf-9" value="FingerPrint Checking" style="rounded=1;whiteSpace=wrap;html=1;strokeColor=#FF0000;fillColor=#FFD966;" vertex="1" parent="1">
          <mxGeometry x="585" y="205" width="125" height="55" as="geometry" />
        </mxCell>
        <mxCell id="UG29eynXlcT5mDYyNSbf-11" value="incorrectDataCounter != 0 " style="edgeLabel;html=1;align=center;verticalAlign=middle;resizable=0;points=[];rotation=0;" vertex="1" connectable="0" parent="1">
          <mxGeometry x="490.0039039540277" y="250.00105903245162" as="geometry">
            <mxPoint x="18" y="-33" as="offset" />
          </mxGeometry>
        </mxCell>
        <mxCell id="UG29eynXlcT5mDYyNSbf-17" style="edgeStyle=orthogonalEdgeStyle;rounded=0;orthogonalLoop=1;jettySize=auto;html=1;strokeColor=#FF0000;" edge="1" parent="1" source="UG29eynXlcT5mDYyNSbf-15" target="UG29eynXlcT5mDYyNSbf-3">
          <mxGeometry relative="1" as="geometry" />
        </mxCell>
        <mxCell id="UG29eynXlcT5mDYyNSbf-15" value="takeFingerPrint" style="rounded=1;whiteSpace=wrap;html=1;strokeColor=#FF0000;fillColor=#FFD966;" vertex="1" parent="1">
          <mxGeometry x="210" y="110" width="90" height="55" as="geometry" />
        </mxCell>
        <mxCell id="UG29eynXlcT5mDYyNSbf-22" value="incorrectDataCounter = 0" style="text;whiteSpace=wrap;html=1;" vertex="1" parent="1">
          <mxGeometry x="50" y="95" width="160" height="30" as="geometry" />
        </mxCell>
        <mxCell id="UG29eynXlcT5mDYyNSbf-26" style="edgeStyle=orthogonalEdgeStyle;rounded=0;orthogonalLoop=1;jettySize=auto;html=1;entryX=0;entryY=0.5;entryDx=0;entryDy=0;endArrow=classicThin;endFill=1;strokeColor=#FF0000;" edge="1" parent="1" source="UG29eynXlcT5mDYyNSbf-24" target="UG29eynXlcT5mDYyNSbf-49">
          <mxGeometry relative="1" as="geometry">
            <mxPoint x="990" y="110" as="targetPoint" />
          </mxGeometry>
        </mxCell>
        <mxCell id="UG29eynXlcT5mDYyNSbf-24" value="Access accomplished" style="rounded=1;whiteSpace=wrap;html=1;strokeColor=#FF0000;fillColor=#FFD966;" vertex="1" parent="1">
          <mxGeometry x="780" y="80" width="140" height="60" as="geometry" />
        </mxCell>
        <mxCell id="UG29eynXlcT5mDYyNSbf-35" style="edgeStyle=orthogonalEdgeStyle;rounded=0;orthogonalLoop=1;jettySize=auto;html=1;endArrow=classicThin;endFill=1;strokeColor=#FF0000;entryX=1;entryY=0.5;entryDx=0;entryDy=0;" edge="1" parent="1" source="UG29eynXlcT5mDYyNSbf-27" target="UG29eynXlcT5mDYyNSbf-36">
          <mxGeometry relative="1" as="geometry">
            <mxPoint x="950" y="420" as="targetPoint" />
          </mxGeometry>
        </mxCell>
        <mxCell id="UG29eynXlcT5mDYyNSbf-27" value="" style="rhombus;whiteSpace=wrap;html=1;" vertex="1" parent="1">
          <mxGeometry x="770" y="197.5" width="65" height="65" as="geometry" />
        </mxCell>
        <mxCell id="UG29eynXlcT5mDYyNSbf-32" value="" style="endArrow=classic;html=1;strokeColor=#FF0000;exitX=0;exitY=1;exitDx=0;exitDy=0;entryX=0.5;entryY=0;entryDx=0;entryDy=0;" edge="1" parent="1" source="UG29eynXlcT5mDYyNSbf-27" target="UG29eynXlcT5mDYyNSbf-33">
          <mxGeometry width="50" height="50" relative="1" as="geometry">
            <mxPoint x="700" y="370" as="sourcePoint" />
            <mxPoint x="720" y="290" as="targetPoint" />
          </mxGeometry>
        </mxCell>
        <mxCell id="UG29eynXlcT5mDYyNSbf-52" style="edgeStyle=orthogonalEdgeStyle;rounded=0;orthogonalLoop=1;jettySize=auto;html=1;endArrow=classicThin;endFill=1;strokeColor=#FF0000;entryX=1;entryY=0.5;entryDx=0;entryDy=0;" edge="1" parent="1" source="UG29eynXlcT5mDYyNSbf-33" target="UG29eynXlcT5mDYyNSbf-53">
          <mxGeometry relative="1" as="geometry">
            <mxPoint x="520" y="340" as="targetPoint" />
          </mxGeometry>
        </mxCell>
        <mxCell id="UG29eynXlcT5mDYyNSbf-33" value="&lt;div&gt;Access &lt;br&gt;&lt;/div&gt;&lt;div&gt;denied&lt;br&gt;&lt;/div&gt;" style="rounded=1;whiteSpace=wrap;html=1;strokeColor=#FF0000;fillColor=#FFD966;" vertex="1" parent="1">
          <mxGeometry x="650" y="310" width="120" height="60" as="geometry" />
        </mxCell>
        <mxCell id="UG29eynXlcT5mDYyNSbf-34" value="[wrong data]" style="text;html=1;align=center;verticalAlign=middle;resizable=0;points=[];autosize=1;" vertex="1" parent="1">
          <mxGeometry x="660" y="267.5" width="80" height="20" as="geometry" />
        </mxCell>
        <mxCell id="UG29eynXlcT5mDYyNSbf-39" style="edgeStyle=orthogonalEdgeStyle;rounded=0;orthogonalLoop=1;jettySize=auto;html=1;entryX=1;entryY=0.5;entryDx=0;entryDy=0;endArrow=classicThin;endFill=1;strokeColor=#FF0000;" edge="1" parent="1" source="UG29eynXlcT5mDYyNSbf-36" target="UG29eynXlcT5mDYyNSbf-38">
          <mxGeometry relative="1" as="geometry">
            <Array as="points">
              <mxPoint x="730" y="545" />
            </Array>
          </mxGeometry>
        </mxCell>
        <mxCell id="UG29eynXlcT5mDYyNSbf-36" value="Correct finger print" style="rounded=1;whiteSpace=wrap;html=1;strokeColor=#FF0000;fillColor=#FFD966;" vertex="1" parent="1">
          <mxGeometry x="820" y="515" width="120" height="60" as="geometry" />
        </mxCell>
        <mxCell id="UG29eynXlcT5mDYyNSbf-81" style="edgeStyle=orthogonalEdgeStyle;rounded=0;orthogonalLoop=1;jettySize=auto;html=1;entryX=1.008;entryY=0.617;entryDx=0;entryDy=0;entryPerimeter=0;endArrow=classicThin;endFill=1;strokeColor=#FF0000;" edge="1" parent="1" source="UG29eynXlcT5mDYyNSbf-38" target="UG29eynXlcT5mDYyNSbf-77">
          <mxGeometry relative="1" as="geometry">
            <Array as="points">
              <mxPoint x="680" y="707" />
            </Array>
          </mxGeometry>
        </mxCell>
        <mxCell id="UG29eynXlcT5mDYyNSbf-38" value="" style="rhombus;whiteSpace=wrap;html=1;" vertex="1" parent="1">
          <mxGeometry x="670" y="545" width="50" height="45" as="geometry" />
        </mxCell>
        <mxCell id="UG29eynXlcT5mDYyNSbf-41" value="" style="endArrow=classic;html=1;strokeColor=#FF0000;entryX=0.923;entryY=0.5;entryDx=0;entryDy=0;entryPerimeter=0;" edge="1" parent="1" target="UG29eynXlcT5mDYyNSbf-43">
          <mxGeometry width="50" height="50" relative="1" as="geometry">
            <mxPoint x="683" y="560" as="sourcePoint" />
            <mxPoint x="540" y="560" as="targetPoint" />
          </mxGeometry>
        </mxCell>
        <mxCell id="UG29eynXlcT5mDYyNSbf-42" value="incorrectDataCounter &amp;lt; 3" style="text;whiteSpace=wrap;html=1;rotation=0;" vertex="1" parent="1">
          <mxGeometry x="540" y="520" width="170" height="30" as="geometry" />
        </mxCell>
        <mxCell id="UG29eynXlcT5mDYyNSbf-45" style="edgeStyle=orthogonalEdgeStyle;rounded=0;orthogonalLoop=1;jettySize=auto;html=1;endArrow=classicThin;endFill=1;strokeColor=#FF0000;entryX=1;entryY=0.5;entryDx=0;entryDy=0;" edge="1" parent="1" source="UG29eynXlcT5mDYyNSbf-43" target="UG29eynXlcT5mDYyNSbf-44">
          <mxGeometry relative="1" as="geometry">
            <mxPoint x="400" y="560" as="targetPoint" />
          </mxGeometry>
        </mxCell>
        <mxCell id="UG29eynXlcT5mDYyNSbf-43" value="Authorize" style="rounded=1;whiteSpace=wrap;html=1;strokeColor=#FF0000;fillColor=#FFD966;" vertex="1" parent="1">
          <mxGeometry x="470" y="530" width="65" height="60" as="geometry" />
        </mxCell>
        <mxCell id="UG29eynXlcT5mDYyNSbf-48" style="edgeStyle=orthogonalEdgeStyle;rounded=0;orthogonalLoop=1;jettySize=auto;html=1;entryX=1;entryY=0.5;entryDx=0;entryDy=0;endArrow=classicThin;endFill=1;strokeColor=#FF0000;" edge="1" parent="1" source="UG29eynXlcT5mDYyNSbf-44" target="UG29eynXlcT5mDYyNSbf-46">
          <mxGeometry relative="1" as="geometry">
            <mxPoint x="145" y="560" as="targetPoint" />
          </mxGeometry>
        </mxCell>
        <mxCell id="UG29eynXlcT5mDYyNSbf-44" value="Access accomplished" style="rounded=1;whiteSpace=wrap;html=1;strokeColor=#FF0000;fillColor=#FFD966;" vertex="1" parent="1">
          <mxGeometry x="260" y="530" width="140" height="60" as="geometry" />
        </mxCell>
        <mxCell id="UG29eynXlcT5mDYyNSbf-46" value="" style="ellipse;html=1;shape=endState;fillColor=#000000;strokeColor=#ff0000;" vertex="1" parent="1">
          <mxGeometry x="95" y="545" width="30" height="30" as="geometry" />
        </mxCell>
        <mxCell id="UG29eynXlcT5mDYyNSbf-49" value="" style="ellipse;html=1;shape=endState;fillColor=#000000;strokeColor=#ff0000;" vertex="1" parent="1">
          <mxGeometry x="1020" y="95" width="30" height="30" as="geometry" />
        </mxCell>
        <mxCell id="UG29eynXlcT5mDYyNSbf-51" value="else" style="text;html=1;align=center;verticalAlign=middle;resizable=0;points=[];autosize=1;" vertex="1" parent="1">
          <mxGeometry x="640" y="660" width="40" height="20" as="geometry" />
        </mxCell>
        <mxCell id="UG29eynXlcT5mDYyNSbf-55" style="edgeStyle=orthogonalEdgeStyle;rounded=0;orthogonalLoop=1;jettySize=auto;html=1;exitX=0;exitY=0;exitDx=0;exitDy=0;endArrow=classicThin;endFill=1;strokeColor=#FF0000;entryX=0.5;entryY=1;entryDx=0;entryDy=0;" edge="1" parent="1" source="UG29eynXlcT5mDYyNSbf-53" target="UG29eynXlcT5mDYyNSbf-15">
          <mxGeometry relative="1" as="geometry">
            <mxPoint x="270" y="330" as="targetPoint" />
            <Array as="points">
              <mxPoint x="350" y="355" />
              <mxPoint x="350" y="280" />
              <mxPoint x="275" y="280" />
            </Array>
          </mxGeometry>
        </mxCell>
        <mxCell id="UG29eynXlcT5mDYyNSbf-60" style="edgeStyle=orthogonalEdgeStyle;rounded=0;orthogonalLoop=1;jettySize=auto;html=1;entryX=1;entryY=0.5;entryDx=0;entryDy=0;endArrow=classicThin;endFill=1;strokeColor=#FF0000;" edge="1" parent="1" source="UG29eynXlcT5mDYyNSbf-53" target="UG29eynXlcT5mDYyNSbf-59">
          <mxGeometry relative="1" as="geometry" />
        </mxCell>
        <mxCell id="UG29eynXlcT5mDYyNSbf-61" value="else" style="edgeLabel;html=1;align=center;verticalAlign=middle;resizable=0;points=[];" vertex="1" connectable="0" parent="UG29eynXlcT5mDYyNSbf-60">
          <mxGeometry x="-0.219" y="-3" relative="1" as="geometry">
            <mxPoint as="offset" />
          </mxGeometry>
        </mxCell>
        <mxCell id="UG29eynXlcT5mDYyNSbf-53" value="" style="rhombus;whiteSpace=wrap;html=1;" vertex="1" parent="1">
          <mxGeometry x="520" y="340" width="60" height="60" as="geometry" />
        </mxCell>
        <mxCell id="UG29eynXlcT5mDYyNSbf-56" value="&lt;div&gt;incorrectDataCounter &amp;lt;3 ;&lt;/div&gt;&lt;div&gt;incorrectDataCounter++&lt;br&gt;&lt;/div&gt;" style="text;html=1;align=center;verticalAlign=middle;resizable=0;points=[];autosize=1;" vertex="1" parent="1">
          <mxGeometry x="350" y="287.5" width="160" height="30" as="geometry" />
        </mxCell>
        <mxCell id="UG29eynXlcT5mDYyNSbf-63" style="edgeStyle=orthogonalEdgeStyle;rounded=0;orthogonalLoop=1;jettySize=auto;html=1;entryX=1;entryY=0.5;entryDx=0;entryDy=0;endArrow=classicThin;endFill=1;strokeColor=#FF0000;" edge="1" parent="1" source="UG29eynXlcT5mDYyNSbf-59" target="UG29eynXlcT5mDYyNSbf-62">
          <mxGeometry relative="1" as="geometry" />
        </mxCell>
        <mxCell id="UG29eynXlcT5mDYyNSbf-59" value="Message send to Local Distributor" style="rounded=1;whiteSpace=wrap;html=1;strokeColor=#FF0000;fillColor=#FFD966;" vertex="1" parent="1">
          <mxGeometry x="300" y="365" width="110" height="60" as="geometry" />
        </mxCell>
        <mxCell id="UG29eynXlcT5mDYyNSbf-67" style="edgeStyle=orthogonalEdgeStyle;rounded=0;orthogonalLoop=1;jettySize=auto;html=1;exitX=0.5;exitY=0;exitDx=0;exitDy=0;entryX=0.5;entryY=1;entryDx=0;entryDy=0;endArrow=classicThin;endFill=1;strokeColor=#FF0000;" edge="1" parent="1" source="UG29eynXlcT5mDYyNSbf-62" target="UG29eynXlcT5mDYyNSbf-66">
          <mxGeometry relative="1" as="geometry" />
        </mxCell>
        <mxCell id="UG29eynXlcT5mDYyNSbf-68" value="data incorrect" style="edgeLabel;html=1;align=center;verticalAlign=middle;resizable=0;points=[];" vertex="1" connectable="0" parent="UG29eynXlcT5mDYyNSbf-67">
          <mxGeometry x="-0.2744" y="3" relative="1" as="geometry">
            <mxPoint as="offset" />
          </mxGeometry>
        </mxCell>
        <mxCell id="UG29eynXlcT5mDYyNSbf-70" style="edgeStyle=orthogonalEdgeStyle;rounded=0;orthogonalLoop=1;jettySize=auto;html=1;endArrow=classicThin;endFill=1;strokeColor=#FF0000;entryX=0.5;entryY=0;entryDx=0;entryDy=0;" edge="1" parent="1" source="UG29eynXlcT5mDYyNSbf-62" target="UG29eynXlcT5mDYyNSbf-72">
          <mxGeometry relative="1" as="geometry">
            <mxPoint x="60" y="470" as="targetPoint" />
            <Array as="points">
              <mxPoint x="240" y="440" />
              <mxPoint x="380" y="440" />
            </Array>
          </mxGeometry>
        </mxCell>
        <mxCell id="UG29eynXlcT5mDYyNSbf-62" value="" style="rhombus;whiteSpace=wrap;html=1;" vertex="1" parent="1">
          <mxGeometry x="210" y="350" width="40" height="40" as="geometry" />
        </mxCell>
        <mxCell id="UG29eynXlcT5mDYyNSbf-69" style="edgeStyle=orthogonalEdgeStyle;rounded=0;orthogonalLoop=1;jettySize=auto;html=1;entryX=0.111;entryY=0.909;entryDx=0;entryDy=0;entryPerimeter=0;endArrow=classicThin;endFill=1;strokeColor=#FF0000;" edge="1" parent="1" source="UG29eynXlcT5mDYyNSbf-66" target="UG29eynXlcT5mDYyNSbf-15">
          <mxGeometry relative="1" as="geometry" />
        </mxCell>
        <mxCell id="UG29eynXlcT5mDYyNSbf-66" value="System sleep for 5 minutes" style="rounded=1;whiteSpace=wrap;html=1;strokeColor=#FF0000;fillColor=#FFD966;" vertex="1" parent="1">
          <mxGeometry x="95" y="250" width="115" height="50" as="geometry" />
        </mxCell>
        <mxCell id="UG29eynXlcT5mDYyNSbf-71" value="data correct" style="text;html=1;align=center;verticalAlign=middle;resizable=0;points=[];autosize=1;" vertex="1" parent="1">
          <mxGeometry x="160" y="405" width="80" height="20" as="geometry" />
        </mxCell>
        <mxCell id="UG29eynXlcT5mDYyNSbf-73" style="edgeStyle=orthogonalEdgeStyle;rounded=0;orthogonalLoop=1;jettySize=auto;html=1;endArrow=classicThin;endFill=1;strokeColor=#FF0000;entryX=1;entryY=0.5;entryDx=0;entryDy=0;" edge="1" parent="1" source="UG29eynXlcT5mDYyNSbf-72" target="UG29eynXlcT5mDYyNSbf-74">
          <mxGeometry relative="1" as="geometry">
            <mxPoint x="130" y="480" as="targetPoint" />
            <Array as="points" />
          </mxGeometry>
        </mxCell>
        <mxCell id="UG29eynXlcT5mDYyNSbf-72" value="Get remote access" style="rounded=1;whiteSpace=wrap;html=1;strokeColor=#FF0000;fillColor=#FFD966;" vertex="1" parent="1">
          <mxGeometry x="320" y="450" width="120" height="60" as="geometry" />
        </mxCell>
        <mxCell id="UG29eynXlcT5mDYyNSbf-74" value="" style="ellipse;html=1;shape=endState;fillColor=#000000;strokeColor=#ff0000;" vertex="1" parent="1">
          <mxGeometry x="95" y="465" width="30" height="30" as="geometry" />
        </mxCell>
        <mxCell id="UG29eynXlcT5mDYyNSbf-82" style="edgeStyle=orthogonalEdgeStyle;rounded=0;orthogonalLoop=1;jettySize=auto;html=1;entryX=1;entryY=0.5;entryDx=0;entryDy=0;endArrow=classicThin;endFill=1;strokeColor=#FF0000;" edge="1" parent="1" source="UG29eynXlcT5mDYyNSbf-77" target="UG29eynXlcT5mDYyNSbf-79">
          <mxGeometry relative="1" as="geometry" />
        </mxCell>
        <mxCell id="UG29eynXlcT5mDYyNSbf-77" value="Authorize" style="rounded=1;whiteSpace=wrap;html=1;strokeColor=#FF0000;fillColor=#FFD966;" vertex="1" parent="1">
          <mxGeometry x="500" y="670" width="120" height="60" as="geometry" />
        </mxCell>
        <mxCell id="UG29eynXlcT5mDYyNSbf-83" style="edgeStyle=orthogonalEdgeStyle;rounded=0;orthogonalLoop=1;jettySize=auto;html=1;entryX=1;entryY=0.5;entryDx=0;entryDy=0;endArrow=classicThin;endFill=1;strokeColor=#FF0000;" edge="1" parent="1" source="UG29eynXlcT5mDYyNSbf-79" target="UG29eynXlcT5mDYyNSbf-80">
          <mxGeometry relative="1" as="geometry" />
        </mxCell>
        <mxCell id="UG29eynXlcT5mDYyNSbf-79" value="Access accomplished" style="rounded=1;whiteSpace=wrap;html=1;strokeColor=#FF0000;fillColor=#FFD966;" vertex="1" parent="1">
          <mxGeometry x="285" y="670" width="140" height="60" as="geometry" />
        </mxCell>
        <mxCell id="UG29eynXlcT5mDYyNSbf-80" value="" style="ellipse;html=1;shape=endState;fillColor=#000000;strokeColor=#ff0000;" vertex="1" parent="1">
          <mxGeometry x="95" y="685" width="30" height="30" as="geometry" />
        </mxCell>
      </root>
    </mxGraphModel>
  </diagram>
</mxfile>
